<svg width="58" height="58" viewBox="0 0 58 58" fill="none" xmlns="http://www.w3.org/2000/svg">
<path d="M40 32.8144L22.98 49.7581C20.895 51.8339 18.067 53 15.1182 53C12.1695 53 9.34153 51.8339 7.25646 49.7581C5.17138 47.6824 4 44.8671 4 41.9316C4 38.996 5.17138 36.1807 7.25646 34.105L24.2764 17.1612C25.6665 15.7774 27.5518 15 29.5176 15C31.4834 15 33.3688 15.7774 34.7588 17.1612C36.1489 18.5451 36.9298 20.4219 36.9298 22.379C36.9298 24.336 36.1489 26.2129 34.7588 27.5967L17.7203 44.5404C17.0253 45.2323 16.0826 45.621 15.0997 45.621C14.1168 45.621 13.1742 45.2323 12.4791 44.5404C11.7841 43.8485 11.3936 42.9101 11.3936 41.9316C11.3936 40.953 11.7841 40.0146 12.4791 39.3227L28.2027 23.688" stroke="#7B61FF" stroke-width="3" stroke-linecap="round" stroke-linejoin="round"/>
</svg>
